<?xml version="1.0" standalone="no"?>
<!DOCTYPE svg PUBLIC "-//W3C//DTD SVG 20010904//EN"
 "http://www.w3.org/TR/2001/REC-SVG-20010904/DTD/svg10.dtd">
<svg version="1.0" xmlns="http://www.w3.org/2000/svg"
 width="200.000000pt" height="200.000000pt" viewBox="0 0 200.000000 200.000000"
 preserveAspectRatio="xMidYMid meet">

<g transform="translate(0.000000,200.000000) scale(0.100000,-0.100000)"
fill="#000000" stroke="none">
<path d="M1396 1592 c-2 -4 -59 -134 -126 -287 -67 -154 -125 -283 -129 -287
-3 -4 -62 55 -130 133 l-124 140 -34 -76 c-18 -42 -33 -79 -33 -83 0 -7 76
-95 197 -230 l75 -83 71 3 70 3 139 310 c76 171 154 345 173 388 l34 77 -89 0
c-49 0 -91 -4 -94 -8z"/>
<path d="M767 1583 c-7 -11 -337 -753 -337 -757 0 -1 10 -2 23 0 12 1 51 3 87
3 l65 1 124 285 c68 157 127 288 132 290 4 3 63 -56 131 -131 l123 -137 32 69
c18 38 31 74 30 81 -1 7 -60 77 -130 157 l-128 146 -74 0 c-41 0 -76 -3 -78
-7z"/>
<path d="M20 524 l0 -125 28 3 c27 3 27 3 27 85 0 45 2 83 5 86 3 3 32 -35 65
-84 l60 -89 53 0 52 0 0 125 0 125 -30 0 -29 0 -3 -92 -3 -93 -64 93 -64 92
-49 0 -48 0 0 -126z"/>
<path d="M370 525 l0 -125 131 0 130 0 -3 28 -3 27 -90 1 c-83 2 -90 4 -93 23
-3 20 1 21 77 21 69 0 82 3 91 19 5 11 10 22 10 25 0 3 -40 6 -90 6 -83 0 -90
1 -90 20 0 19 7 20 94 20 81 0 94 2 98 18 10 39 1 42 -133 42 l-129 0 0 -125z"/>
<path d="M708 613 c16 -21 39 -47 51 -57 12 -11 21 -24 21 -30 0 -6 -26 -36
-57 -68 l-57 -58 51 0 c48 0 52 2 89 47 l38 46 42 -46 c39 -44 46 -47 90 -47
l48 0 -57 58 c-31 32 -57 62 -57 66 0 5 24 34 53 65 l52 56 -43 3 c-40 3 -46
0 -85 -44 l-43 -47 -37 47 c-35 42 -42 46 -84 46 l-45 0 30 -37z"/>
<path d="M1049 648 c-1 -2 -2 -15 -3 -30 -2 -27 0 -28 51 -28 l53 0 0 -95 0
-95 35 0 35 0 0 95 0 95 56 0 c54 0 55 0 52 28 l-3 27 -137 3 c-76 1 -139 1
-139 0z"/>
<path d="M1392 520 l-63 -120 36 0 c28 0 38 5 47 25 11 24 15 25 93 25 78 0
82 -1 93 -25 9 -20 19 -25 47 -25 l35 0 -63 120 -62 120 -50 0 -50 0 -63 -120z
m168 -27 c0 -1 -25 -3 -55 -3 -30 0 -55 2 -55 5 0 3 12 29 26 57 l26 51 29
-53 c16 -29 29 -55 29 -57z"/>
<path d="M1710 520 l60 -120 43 0 42 0 63 120 63 120 -35 0 c-33 0 -36 -3 -83
-90 -26 -49 -50 -90 -53 -90 -3 1 -24 41 -47 90 -41 88 -43 90 -78 90 l-35 0
60 -120z"/>
</g>
</svg>
